<?xml version="1.0" encoding="UTF-8"?>
<svg width="960px" height="960px" viewBox="0 0 960 960" version="1.1" xmlns="http://www.w3.org/2000/svg" xmlns:xlink="http://www.w3.org/1999/xlink">
    <!-- Generator: Sketch 60.1 (88133) - https://sketch.com -->
    <title>me.nanoleaf/nanoleaf_hexagon</title>
    <desc>Created with Sketch.</desc>
    <g id="me.nanoleaf/nanoleaf_hexagon" stroke="none" stroke-width="1" fill="none" fill-rule="evenodd" stroke-linejoin="round">
        <g id="Group" transform="translate(172.930693, 14.447566)" stroke="#000000" stroke-width="25">
            <polygon id="Path-19" points="83.6529 0.552433533 0.0693065023 155.469876 83.6529 322.726331 228.220964 325.552434 298.069307 186.878789 228.220964 26.9793193"/>
            <polygon id="Path-20" points="298.11829 186.552434 409.875509 198.730106 468.069307 333.869292 413.489833 466.552434 292.678454 466.552434 228.069307 325.658366"/>
            <polygon id="Path-21" points="228.069307 610.322985 292.453729 465.552434 412.844899 465.552434 464.069307 583.988328 408.178961 715.908156 295.13117 735.552434"/>
            <polygon id="Path-22" points="410.069307 198.919066 468.143377 72.5524335 570.587876 90.0128006 616.069307 220.992247 562.178031 338.552434 468.143377 334.230963"/>
            <polygon id="Path-23" points="7.0693065 788.466284 90.8972882 931.552434 234.219949 892.754578 295.069307 735.192062 227.992794 610.552434 86.5760753 625.663247"/>
            <polygon id="Path-24" points="409.069307 715.276373 462.889457 831.552434 558.88998 806.881548 605.069307 679.406343 558.88998 571.552434 464.829321 583.709966"/>
        </g>
        <g id="Group-2" transform="translate(163.930693, 15.447566)" stroke="#000000" stroke-linecap="round" stroke-width="25">
            <polyline id="Path" points="83.0693065 0.552433533 0.0693065023 155.386257 83.0693065 322.552434"/>
            <line x1="293.069307" y1="466.552434" x2="228.069307" y2="325.552434" id="Path"/>
            <line x1="228.069307" y1="610.552434" x2="292.069307" y2="465.552434" id="Path"/>
            <line x1="410.069307" y1="198.552434" x2="468.069307" y2="72.5524335" id="Path"/>
            <polyline id="Path" points="228.069307 610.552434 86.6036108 625.663247 7.0693065 788.466284 90.9263203 931.552434"/>
            <line x1="408.069307" y1="715.552434" x2="462.069307" y2="831.552434" id="Path"/>
        </g>
    </g>
</svg>