<?xml version="1.0" encoding="UTF-8"?>
<!DOCTYPE svg PUBLIC "-//W3C//DTD SVG 1.1//EN" "http://www.w3.org/Graphics/SVG/1.1/DTD/svg11.dtd">
<svg id="Layer_1" xmlns="http://www.w3.org/2000/svg" viewBox="0 0 46.65 49.71"><defs/><title>icon</title><g><path class="cls-1" d="M29.62,26.35c1.4,2.2,4.1,3.1,6,2s2.3-3.9.9-6.2-4.1-3.1-6-2-2.3,4-.9,6.2m-12.5,7.7c1.4,2.2,4.1,3.1,6,1.9s2.3-3.9.9-6.2-4.1-3.1-6-1.9-2.3,3.9-.9,6.2m-.7-14.9c1.4,2.2,4.1,3.1,6,2s2.3-3.9.9-6.2-4.1-3.1-6-2-2.3,4-.9,6.2m23.7,30.4c-2.8,1.4-2.8-6.9-4.8-5.4-9,5.9-9.8,4.4-13.4,3.2-4.8-1.4-16.5-6.2-20.1-13.7-3.7-9.3-.7-23.5-.2-25.6C3.12,2,6.72.85,9.52.25c10.5-1.5,26.4,4.1,29.6,6.9,4.2,3.5,9,23.7,7.1,29.7-.6,1.9-6.9,3.6-7.6,5-1.2,1.7,4.5,6.5,1.5,7.7"/></g></svg>